<?xml version="1.0" encoding="UTF-8" standalone="no"?>
<svg
   viewBox="0 0 32 32"
   version="1.1"
   id="svg1"
   sodipodi:docname="favicon.svg"
   inkscape:version="1.4.3 (0d15f75, 2025-12-25)"
   xmlns:inkscape="http://www.inkscape.org/namespaces/inkscape"
   xmlns:sodipodi="http://sodipodi.sourceforge.net/DTD/sodipodi-0.dtd"
   xmlns="http://www.w3.org/2000/svg"
   xmlns:svg="http://www.w3.org/2000/svg">
  <defs
     id="defs1" />
  <sodipodi:namedview
     id="namedview1"
     pagecolor="#ffffff"
     bordercolor="#000000"
     borderopacity="0.25"
     inkscape:showpageshadow="2"
     inkscape:pageopacity="0.0"
     inkscape:pagecheckerboard="0"
     inkscape:deskcolor="#d1d1d1"
     inkscape:zoom="18.73833"
     inkscape:cx="30.765816"
     inkscape:cy="13.048121"
     inkscape:window-width="1710"
     inkscape:window-height="984"
     inkscape:window-x="0"
     inkscape:window-y="39"
     inkscape:window-maximized="1"
     inkscape:current-layer="svg1" />
  <rect
     width="32"
     height="32"
     rx="7"
     fill="#1a1a2e"
     id="rect1" />
  <!-- hoop: ellipse tilted -45° to show it rolling in from top-left -->
  <path
     style="baseline-shift:baseline;display:inline;overflow:visible;opacity:1;vector-effect:none;fill:#4dabf7;stroke-width:1.43825;enable-background:accumulate;stop-color:#000000;stop-opacity:1"
     d="m 23.059091,3.0228981 c -3.026193,-0.5804529 -5.814022,0.9657187 -7.940571,3.1532572 -2.126548,2.1875384 -3.843632,5.2365687 -4.852248,8.7640037 -1.0086184,3.527437 -1.1230788,6.883864 -0.4036063,9.617296 0.7194703,2.733434 2.3791653,5.132683 5.4053583,5.713134 3.026194,0.580453 6.875845,-0.507557 9.002392,-2.695096 2.12655,-2.187539 4.155283,-5.08129 5.163901,-8.608725 1.008616,-3.527436 0.811428,-7.039143 0.09195,-9.7725744 C 28.806802,6.4607608 26.085283,3.6033509 23.059091,3.0228981 Z m -1.947334,2.4651565 c 0.819414,0.1571728 2.913473,1.8262672 3.468179,3.933728 0.554712,2.1074624 0.505175,5.0676584 -0.387477,8.1895524 -0.892659,3.121893 -2.807049,5.639562 -4.446609,7.326142 -1.639556,1.68658 -4.42991,2.109984 -5.249325,1.952812 -0.819417,-0.157171 -1.787495,-1.128202 -2.342202,-3.235664 -0.554712,-2.107462 -0.592886,-5.09718 0.299773,-8.219073 0.892658,-3.121894 2.525196,-5.9359479 4.164755,-7.6225273 1.639557,-1.6865809 3.673488,-2.4821425 4.492906,-2.3249701 z"
     id="ellipse1"
     sodipodi:nodetypes="ssssssssssssssssss" />
  <!-- stick: pushing from upper-left, touching the hoop's trailing edge -->
  <line
     x1="4.5703478"
     y1="4.1469688"
     x2="20.490137"
     y2="8.4365101"
     stroke="#c8a96e"
     stroke-width="2.49394"
     stroke-linecap="round"
     id="line1" />
</svg>
